<svg width="262" height="267" viewBox="0 0 262 267" fill="none" xmlns="http://www.w3.org/2000/svg">
<path fill-rule="evenodd" clip-rule="evenodd" d="M97.6545 195.309C151.588 195.309 195.309 151.588 195.309 97.6545C195.309 43.7214 151.588 0 97.6545 0C43.7214 0 0 43.7214 0 97.6545C0 151.588 43.7214 195.309 97.6545 195.309ZM112.678 177.281C158.314 177.281 195.309 141.631 195.309 97.6545C195.309 53.6783 158.314 18.0285 112.678 18.0285C67.0423 18.0285 30.0473 53.6783 30.0473 97.6545C30.0473 141.631 67.0423 177.281 112.678 177.281Z" fill="#F8F9F6"/>
<path fill-rule="evenodd" clip-rule="evenodd" d="M123.194 27.0429C83.3669 27.0429 51.0803 57.9842 51.0803 96.1522C51.0803 96.7013 51.087 97.2488 51.1003 97.7948C51.9237 68.5538 79.178 45.0716 112.679 45.0716C146.698 45.0717 174.276 69.2866 174.276 99.1572C174.276 129.028 146.698 153.243 112.679 153.243C85.1566 153.243 61.8504 137.394 53.9518 115.524C62.6915 144.263 90.3841 165.262 123.194 165.262C163.022 165.262 195.309 134.32 195.309 96.1523C195.309 57.9842 163.022 27.0429 123.194 27.0429Z" fill="#F8F9F6"/>
<path fill-rule="evenodd" clip-rule="evenodd" d="M164.345 266.764C218.278 266.764 262 223.042 262 169.109C262 115.176 218.278 71.4547 164.345 71.4547C110.412 71.4547 66.6907 115.176 66.6907 169.109C66.6907 223.042 110.412 266.764 164.345 266.764ZM179.369 248.735C225.004 248.735 261.999 213.085 261.999 169.109C261.999 125.133 225.004 89.4828 179.369 89.4828C133.733 89.4828 96.7379 125.133 96.7379 169.109C96.7379 213.085 133.733 248.735 179.369 248.735Z" fill="#F8F9F6"/>
<path fill-rule="evenodd" clip-rule="evenodd" d="M189.885 98.4975C150.058 98.4975 117.771 129.439 117.771 167.607C117.771 168.156 117.778 168.703 117.791 169.249C118.614 140.008 145.869 116.526 179.369 116.526C213.389 116.526 240.967 140.741 240.967 170.612C240.967 200.482 213.389 224.697 179.369 224.697C151.847 224.697 128.54 208.848 120.642 186.978C129.382 215.717 157.074 236.716 189.885 236.716C229.713 236.716 261.999 205.775 261.999 167.607C261.999 129.439 229.713 98.4975 189.885 98.4975Z" fill="#F8F9F6"/>
</svg>
